<?xml version="1.0" standalone="no"?>
<!DOCTYPE svg PUBLIC "-//W3C//DTD SVG 20010904//EN"
 "http://www.w3.org/TR/2001/REC-SVG-20010904/DTD/svg10.dtd">
<svg version="1.0" xmlns="http://www.w3.org/2000/svg"
 width="700.000000pt" height="700.000000pt" viewBox="0 0 700.000000 700.000000"
 preserveAspectRatio="xMidYMid meet">
<metadata>
Created by potrace 1.14, written by Peter Selinger 2001-2017
</metadata>
<g transform="translate(0.000000,700.000000) scale(0.100000,-0.100000)"
fill="#000000" stroke="none">
<path d="M4370 6996 c0 -3 36 -23 80 -45 436 -220 800 -649 1007 -1186 89
-230 136 -402 188 -683 3 -15 7 -38 10 -51 2 -14 7 -45 10 -70 3 -25 7 -62 10
-81 8 -58 19 -177 30 -325 7 -94 7 -505 0 -620 -6 -96 -15 -227 -20 -275 -2
-19 -6 -64 -10 -100 -5 -55 -25 -205 -40 -300 -2 -14 -7 -45 -10 -70 -4 -24
-8 -47 -10 -50 -2 -3 -6 -25 -10 -50 -4 -25 -8 -47 -10 -50 -2 -3 -6 -23 -9
-45 -29 -181 -152 -587 -259 -850 -265 -653 -662 -1198 -1127 -1549 -41 -31
-80 -60 -86 -65 -6 -5 -57 -37 -115 -71 -121 -74 -244 -134 -390 -190 l-104
-41 140 6 c156 6 178 8 320 36 145 28 405 105 500 149 11 5 54 23 95 41 158
66 356 177 515 288 74 51 242 187 291 236 62 61 236 219 284 258 124 101 189
112 220 37 43 -105 -15 -513 -158 -1107 -21 -89 -35 -160 -29 -156 13 8 66 67
144 161 250 300 426 590 556 917 86 215 162 497 182 680 4 33 9 69 11 80 20
104 24 522 8 730 -13 179 -12 337 5 368 29 55 88 35 135 -46 44 -76 119 -334
142 -492 l8 -50 7 35 c5 19 11 51 14 70 3 19 12 69 20 110 8 41 17 91 19 110
3 19 8 46 10 60 2 14 7 48 11 75 3 28 8 64 11 80 23 165 29 281 29 525 -1 206
-7 355 -20 432 -2 12 -6 46 -10 73 -4 28 -8 65 -11 84 -9 68 -46 239 -79 366
-124 473 -351 934 -679 1375 -38 52 -73 97 -76 100 -3 3 -24 28 -45 55 -84
105 -247 274 -371 383 -304 268 -708 503 -1083 629 -57 19 -115 37 -127 39
-13 2 -35 9 -49 14 -14 5 -25 7 -25 5 0 -2 -11 0 -25 5 -14 5 -25 8 -25 6z"/>
<path d="M2550 6980 c-14 -5 -58 -18 -98 -30 -245 -73 -528 -207 -777 -368
-100 -65 -264 -184 -320 -233 -121 -106 -161 -143 -243 -226 -357 -364 -691
-894 -879 -1396 -78 -209 -160 -523 -187 -712 -20 -137 -26 -190 -33 -270 -15
-169 -8 -661 12 -763 1 -9 6 -42 9 -73 4 -31 8 -65 10 -75 2 -11 7 -44 11 -74
4 -30 9 -64 11 -75 15 -77 44 -245 47 -267 4 -33 17 -49 18 -22 0 10 2 26 4
34 5 19 14 63 19 95 12 65 61 238 88 308 29 75 89 157 116 157 6 0 24 -11 39
-24 28 -24 28 -25 28 -143 0 -65 -5 -181 -10 -258 -19 -295 -10 -625 25 -825
5 -30 11 -71 14 -91 9 -59 83 -338 110 -414 128 -360 307 -681 546 -980 90
-113 203 -243 211 -244 3 -1 -5 43 -18 97 -13 53 -39 169 -59 257 -19 88 -39
178 -44 200 -5 22 -17 81 -26 130 -9 50 -18 99 -20 110 -3 11 -7 40 -10 65 -3
25 -7 52 -9 60 -9 34 -19 160 -18 236 0 59 5 92 19 120 18 36 22 39 60 38 63
-1 131 -51 353 -260 285 -267 512 -426 811 -567 250 -118 575 -219 775 -243
22 -3 51 -7 65 -10 14 -3 83 -8 154 -11 95 -4 127 -3 122 6 -4 6 -13 11 -21
11 -7 0 -64 20 -127 46 -770 309 -1429 1115 -1771 2169 -69 211 -120 406 -152
575 -3 14 -7 36 -10 50 -7 32 -11 54 -20 110 -4 25 -9 52 -10 61 -10 54 -32
215 -40 299 -3 30 -7 75 -10 100 -24 231 -35 690 -21 890 13 174 16 218 21
250 3 19 7 55 10 79 3 23 7 55 9 70 3 14 8 46 11 71 9 67 15 103 20 120 2 8 7
31 10 50 50 292 188 669 350 955 91 161 258 373 384 489 24 23 51 48 60 56 66
65 245 189 366 255 39 20 72 39 74 41 8 7 -33 3 -59 -6z"/>
<path d="M3240 6269 c-25 -28 -52 -58 -60 -67 -8 -10 -37 -44 -65 -77 -27 -33
-52 -62 -55 -65 -30 -29 -207 -258 -283 -367 -177 -252 -235 -397 -265 -663
-8 -76 -8 -291 0 -370 25 -233 54 -345 162 -625 59 -154 56 -193 -18 -226 -56
-25 -157 -27 -224 -5 -101 34 -164 131 -229 356 -7 23 -18 -1 -62 -137 -61
-182 -77 -303 -54 -393 17 -68 46 -117 123 -211 81 -100 100 -141 87 -192 -13
-53 -67 -104 -124 -120 l-46 -12 6 -135 c10 -265 75 -411 236 -534 31 -23 112
-78 181 -122 136 -85 197 -140 229 -202 11 -22 61 -172 111 -334 135 -439 158
-493 269 -653 99 -143 277 -305 334 -305 100 0 341 255 451 476 36 72 66 161
186 549 39 127 83 252 98 279 33 61 77 98 227 194 217 138 281 196 334 300 47
94 73 209 79 360 4 123 4 132 -13 132 -10 0 -38 10 -63 21 -54 27 -96 86 -94
135 2 43 18 70 111 189 40 50 80 114 92 145 27 71 27 168 0 286 -25 110 -91
298 -101 287 -4 -4 -13 -30 -20 -58 -21 -82 -84 -207 -124 -248 -65 -64 -211
-89 -304 -52 -85 34 -86 74 -8 278 71 184 81 217 101 312 23 110 22 104 29
160 4 28 9 66 12 85 9 65 12 315 4 375 -10 74 -19 133 -26 165 -3 14 -7 35
-10 48 -42 201 -191 442 -519 837 -50 61 -112 133 -137 160 -25 28 -55 61 -67
75 -19 23 -20 23 -20 5 -1 -26 23 -157 49 -275 20 -91 41 -156 180 -550 103
-293 125 -392 124 -565 -1 -157 -15 -263 -50 -383 -33 -116 -104 -226 -165
-258 -82 -42 -140 10 -189 169 -19 61 -27 95 -30 127 -5 52 -60 -188 -62 -268
-2 -92 38 -197 127 -337 19 -30 35 -60 35 -67 0 -21 -42 -94 -76 -130 -17 -18
-58 -59 -92 -90 l-60 -58 -53 48 c-97 85 -179 187 -179 222 0 9 16 43 36 76
139 228 151 306 90 544 -2 8 -8 28 -12 45 -6 26 -10 19 -31 -63 -48 -193 -114
-263 -202 -218 -77 40 -156 186 -186 344 -2 12 -6 26 -9 30 -9 16 -20 177 -20
292 1 72 8 143 18 190 10 41 20 84 22 95 4 23 132 397 188 550 40 110 80 257
102 380 18 99 27 165 23 165 -2 -1 -24 -24 -49 -51z m-474 -3216 c23 -23 74
-60 112 -82 96 -56 130 -98 167 -206 23 -67 44 -195 33 -195 -5 0 -26 11 -46
25 -20 14 -86 46 -147 71 -200 85 -249 115 -281 176 -29 55 -11 151 52 284
l17 36 25 -34 c14 -18 45 -52 68 -75z m1625 -42 c23 -64 24 -132 5 -169 -32
-61 -89 -97 -261 -166 -49 -20 -115 -52 -148 -71 -52 -31 -87 -39 -73 -16 5 8
10 31 22 106 9 60 51 157 85 198 17 20 58 53 92 73 84 49 140 96 179 150 l32
45 24 -48 c14 -26 33 -72 43 -102z"/>
</g>
</svg>
